<svg xmlns="http://www.w3.org/2000/svg" viewBox="0 0 512 512" role="img" aria-label="Crimson Project">
  <defs>
    <style>
      .name {
        font-family: Georgia, "Palatino Linotype", "Book Antiqua", "Times New Roman", Times, serif;
        font-weight: 600;
        fill: #f1f5f9;
        letter-spacing: 0.05em;
      }
      .name-sub {
        font-family: Georgia, "Palatino Linotype", "Book Antiqua", "Times New Roman", Times, serif;
        font-weight: 400;
        fill: #a8b4c4;
        letter-spacing: 0.08em;
      }
    </style>
  </defs>

  <rect width="512" height="512" rx="88" fill="#141414"/>

  <!-- Historic Palestine outline from Wikimedia (Flag-map of Mandatory Palestine, AnonMoos, public domain) -->
  <svg x="154" y="36" width="204" height="420" viewBox="0 0 202.11687 610.99988" overflow="visible">
    <g fill="none" stroke="#b91c1c" stroke-width="6" stroke-linejoin="round" stroke-linecap="round" transform="translate(-7.6611,-4.5001145)">
      <path d="m 7.6611,319.886 c 12,-10.797 27.3194,-26.846 27.3194,-26.846 l 9.5966,-11.311 c 9.127,-13.436 16.3262,-26.68 21.7823,-38.041 9.2978,-19.36 13.5215,-33.25 13.5215,-33.25 1.3711,-2.056 0.6865,-5.827 3.0849,-8.226 2.4004,-2.4 4.7998,-11.996 4.7998,-11.996 11.3106,-27.077 18.5064,-86.373 18.5064,-86.373 0.687,-1.373 0.343,-4.4573 1.373,-6.1701 1.028,-1.7139 0.685,-3.7706 2.399,-13.3682 1.713,-9.5967 5.826,-5.8262 5.826,-5.8262 4.113,4.7979 7.541,0 9.597,-2.7422 1.589,-2.1191 2.153,-6.8857 2.328,-8.9502 0.051,-0.6084 0.07,-0.9931 0.07,-0.9931 -3.086,-4.1133 -1.028,-6.5127 -0.343,-8.2256 0.685,-1.7139 5.827,-16.7959 5.142,-20.5654 -0.102,-0.5577 -0.129,-1.1299 -0.1,-1.7002 0,0 6.956,1.7002 9.697,1.7002 2.742,0 5.826,-0.6856 7.884,-0.6856 2.056,0 7.198,-2.3994 9.253,-1.0283 2.058,1.3711 5.828,5.1416 5.828,5.1416 0,0 2.743,1.0283 5.141,1.0283 2.4,0 4.799,-1.3711 6.513,-2.3994 0.48,-0.2871 1.346,-0.7158 2.362,-1.2275 2.606,-1.3145 6.247,-3.2129 7.234,-4.9395 1.371,-2.3975 4.113,-8.2256 3.77,-11.3105 -0.342,-3.084 1.714,-11.9952 2.058,-13.0235 0.342,-1.0273 1.713,-6.1689 4.112,-3.084 2.399,3.084 4.112,4.1123 6.169,4.1123 2.056,0 8.911,-0.3418 6.514,2.7422 -2.401,3.085 -2.401,5.4844 -2.057,6.8555 0.342,1.3711 1.371,3.7705 -0.344,9.5967 -1.714,5.8261 -2.057,15.081 -2.399,16.4521 -0.341,1.3692 -2.056,15.7666 -2.056,15.7666 l 0.032,5.0879 c 0.442,0.2666 0.902,0.8057 1.339,1.7666 1.714,3.7705 4.113,9.2549 2.741,14.0518 0,0 2.401,0.3437 2.058,2.7431 -0.343,2.3985 -2.058,12.3389 -2.058,12.3389 0,0 -0.341,2.0557 1.029,2.0557 v 0.0029 c 1.371,0 4.799,1.7131 -0.343,3.4271 -5.141,1.715 -4.8,0 -6.855,3.427 -2.057,3.428 -3.77,2.742 -3.77,6.169 0,3.428 1.028,10.284 -0.343,12.339 -1.372,2.056 -1.028,7.883 -1.029,9.598 0,0 0.686,11.31 -0.343,15.079 -0.582,2.137 -0.607,4.267 -0.464,6.217 0.112,1.49 0.318,2.877 0.466,4.064 0.342,2.743 2.399,15.082 1.713,18.166 l 0.005,0.003 c -0.685,3.084 -5.483,20.222 -5.826,23.65 -0.344,3.427 -0.687,9.253 0.343,11.997 1.026,2.741 0,9.596 -0.687,13.367 0,0 1.713,6.512 1.713,8.911 0,2.398 0,8.911 0,8.911 l -1.37,3.427 -10.879,109.042 c 0,0 -3.184,9.203 -4.554,13.316 -1.372,4.113 0.342,11.311 -4.456,15.081 -4.798,3.771 -6.512,5.141 -7.198,9.255 -0.686,4.112 0.001,10.282 -3.771,13.026 0,0 -5.14,13.023 -5.483,16.451 0,0 -7.197,16.109 -8.568,19.88 -1.371,3.769 -7.54,22.279 -6.17,26.392 1.371,4.113 3.771,7.54 1.371,12.339 -2.4,4.798 -5.484,11.996 -3.084,20.566 2.399,8.568 3.427,12.338 1.028,14.738 -2.399,2.399 -9.253,17.481 -10.282,20.908 -1.028,3.428 -2.4,15.081 -2.741,17.823 -0.343,2.741 -1.029,7.539 -2.743,10.968 0,0 -5.141,12.682 -5.141,17.479 0,4.798 -2.742,11.996 -4.455,15.424 l -2.47,6.781 c -1.559,0.161 -3.358,1.96 -4.388,4.531 -0.558,1.397 -1.401,2.623 -2.461,3.702 0,0 -6.7916,-7.473 -6.4488,-12.271 0.3428,-4.799 0.6855,-10.283 -0.6856,-13.709 -1.372,-3.429 -2.7431,-10.284 -2.7431,-12.34 L 82.2764,541.191 c 0,0 -19.5371,-62.038 -22.2784,-65.123 0,0 -2.833,-2.092 -5.3769,-4.695 -2.4981,-2.556 -4.7207,-5.603 -3.7022,-7.643 2.0567,-4.112 2.0567,-6.683 0,-10.283 -2.0566,-3.598 -2.5712,-8.74 -2.5712,-12.339 0,0 -11.8243,-36.503 -15.9375,-44.214 L 7.6611,319.886 z"/>
    </g>
  </svg>

  <text x="256" y="242" text-anchor="middle" class="name" font-size="36">Crimson</text>
  <text x="256" y="282" text-anchor="middle" class="name-sub" font-size="21">Project</text>
</svg>